<svg width="24" height="20" viewBox="0 0 24 20" fill="none" xmlns="http://www.w3.org/2000/svg">
<path d="M1 1H5L7.68 12.6044C7.77144 13.0034 8.02191 13.3618 8.38755 13.6169C8.75318 13.872 9.2107 14.0075 9.68 13.9997H19.4C19.8693 14.0075 20.3268 13.872 20.6925 13.6169C21.0581 13.3618 21.3086 13.0034 21.4 12.6044L23 5.33323H6M10 18C10 18.5523 9.55228 19 9 19C8.44772 19 8 18.5523 8 18C8 17.4477 8.44772 17 9 17C9.55228 17 10 17.4477 10 18ZM21 18C21 18.5523 20.5523 19 20 19C19.4477 19 19 18.5523 19 18C19 17.4477 19.4477 17 20 17C20.5523 17 21 17.4477 21 18Z" stroke="white" stroke-width="2" stroke-linecap="round" stroke-linejoin="round"/>
</svg>
